<?xml version="1.0" encoding="UTF-8"?>
<svg xmlns="http://www.w3.org/2000/svg" viewBox="0 0 1080.0 1080.0">
<defs>
  <linearGradient id="grad_mood_alive_0" gradientUnits="userSpaceOnUse" x1="540.0" y1="1080.0" x2="540.0" y2="0.0">
    <stop offset="0.0" stop-color="#ffb218" />
    <stop offset="0.5" stop-color="#ffd04b" />
    <stop offset="1.0" stop-color="#f8e46d" />
  </linearGradient>
</defs>
  <path d="M540,0C458.7,0 377.4,31 315.4,93C266.5,141.8 234.9,205.2 225.4,273.7C169.9,282.9 118.8,309.3 79.1,349.1C26.4,401.8 0,470.9 0,540C0,609.1 26.4,678.2 79.1,730.9C104.1,756 133.9,775.9 166.7,789.5C199.5,803.1 234.5,810 270,810C419.2,810 540,930.8 540,1080C540,930.8 660.8,810 810,810C845.5,810 880.6,803.1 913.4,789.5C946.2,775.9 975.9,756 1001,730.9C1053.7,678.2 1080.1,609.1 1080.1,540C1080.1,470.9 1053.7,401.8 1001,349.1C961.3,309.3 910.1,282.9 854.7,273.7C845.3,205.3 813.6,141.8 764.7,93C702.6,31 621.3,0 540,0Z" fill="url(#grad_mood_alive_0)" />
</svg>
