<?xml version="1.0" encoding="UTF-8"?>
<svg xmlns="http://www.w3.org/2000/svg" viewBox="0 0 1080.0 1080.0">
<defs>
  <linearGradient id="grad_mood_thoughtful_0" gradientUnits="userSpaceOnUse" x1="539.6" y1="1080.0" x2="539.6" y2="-0.0">
    <stop offset="0.0" stop-color="#40c786" />
    <stop offset="0.5" stop-color="#4ce39b" />
    <stop offset="1.0" stop-color="#8befa2" />
  </linearGradient>
</defs>
  <path d="M675,0.1C546.6,0.1 432.2,59.9 358,153.1C343.1,54.8 251.3,-12.8 153,2.1C54.7,17 -12.8,108.8 2.1,207C10.4,261.9 43.6,309.9 92,337C33.5,388.2 -0.1,462.2 0,540C0,689.1 120.9,810 270,810C278.4,810 286.6,809.6 294.8,808.9C244.5,894.6 273.2,1004.9 358.9,1055.2C387.3,1071.9 418.5,1079.9 449.2,1080C511.2,1080.2 571.6,1048.4 605.2,991.1C639.4,932.9 638.1,860.4 601.9,803.4C626,807.8 650.5,810 675,810C898.7,810 1080,628.7 1080,405C1080,181.3 898.7,0.1 675,0.1Z" fill="url(#grad_mood_thoughtful_0)" />
</svg>
