<?xml version="1.0" encoding="UTF-8"?>
<svg xmlns="http://www.w3.org/2000/svg" viewBox="0 0 1080.0 1080.0">
  <path d="M540,180C360,180 360,0 180,0C80.6,0 0,80.6 0,180C0,279.4 80.6,360 180,360C80.6,360 0,440.6 0,540V900C0,999.4 80.6,1080 180,1080C279.4,1080 360,999.4 360,900C360,999.4 440.6,1080 540,1080C639.4,1080 720,999.4 720,900C720,999.4 800.6,1080 900,1080C999.4,1080 1080,999.4 1080,900V540C1080,440.6 999.4,360 900,360C999.4,360 1080,279.4 1080,180C1080,80.6 999.4,0 900,0C720,0 720,180 540,180Z" fill="#4ce39b" />
</svg>
