<?xml version="1.0" encoding="UTF-8"?>
<svg xmlns="http://www.w3.org/2000/svg" viewBox="0 0 1080.0 1080.0">
  <path d="M540,180C539.9,80.7 459.3,0 360,0C318.1,0 247.6,0 180,0C180,99.4 99.4,180 0,180C0,229.8 0,384.8 0,540C0,694.3 0,848.7 0,900C99.4,900 180,980.6 180,1080C247.6,1080 318.1,1080 360,1080C459.3,1080 539.9,999.3 540,900C540.1,999.3 620.7,1080 720,1080C761.9,1080 832.4,1080 900,1080C900,980.6 980.6,900 1080,900C1080,848.7 1080,694.3 1080,540C1080,384.8 1080,229.8 1080,180C980.6,180 900,99.4 900,0C832.4,0 761.9,0 720,0C620.7,0 540.1,80.7 540,180Z" fill="#799fff" />
</svg>
