<?xml version="1.0" encoding="UTF-8"?>
<svg xmlns="http://www.w3.org/2000/svg" viewBox="0 0 1080.0 1080.0">
<defs>
  <linearGradient id="grad_mood_tired_0" gradientUnits="userSpaceOnUse" x1="540.0" y1="0.0" x2="540.0" y2="1080.0">
    <stop offset="0.0" stop-color="#87c3fb" />
    <stop offset="0.5" stop-color="#799fff" />
    <stop offset="1.0" stop-color="#717fff" />
  </linearGradient>
</defs>
  <path d="M540,0C241.8,0 0,241.8 0,540C0,838.2 241.8,1080 540,1080C601.3,1080.1 662.3,1069.7 720.1,1049.3C611.3,1010.7 517.7,938.4 452.9,842.8C481.2,850.9 510.6,855.1 540.1,855C656.7,855 758.5,791.7 812.9,697.5C899.9,745.6 1009.4,714.1 1057.5,627.1C1072.8,599.4 1080,569.5 1080,540C1079.9,476.7 1046.4,415.3 987.1,382.5C932.9,352.5 867,352.5 812.8,382.5C758.5,288.3 656.7,225 540,225C510.5,225 481.2,229.1 452.8,237.2C517.6,141.7 611.2,69.3 720,30.7C662.3,10.3 601.3,-0.1 540,0Z" fill="url(#grad_mood_tired_0)" />
</svg>
