<?xml version="1.0" encoding="UTF-8"?>
<svg xmlns="http://www.w3.org/2000/svg" viewBox="0 0 1080.0 1080.0">
<defs>
  <linearGradient id="grad_mood_empathetic_0" gradientUnits="userSpaceOnUse" x1="539.6" y1="1080.0" x2="539.6" y2="-0.0">
    <stop offset="0.0" stop-color="#40c786" />
    <stop offset="0.5" stop-color="#4ce39b" />
    <stop offset="1.0" stop-color="#8befa2" />
  </linearGradient>
</defs>
  <path d="M540,360C440.6,360 360,279.4 360,180C360,80.6 279.4,0 180,0C80.6,0 0,80.6 0,180C0,279.4 0,450 0,540C0,630 0,800.6 0,900C0,999.4 80.6,1080 180,1080C279.4,1080 360,999.4 360,900C360,800.6 440.6,720 540,720C639.4,720 720,800.6 720,900C720,999.4 800.6,1080 900,1080C999.4,1080 1080,999.4 1080,900C1080,800.6 1080,630 1080,540C1080,450 1080,279.4 1080,180C1080,80.6 999.4,0 900,0C800.6,0 720,80.6 720,180C720,279.4 639.4,360 540,360Z" fill="url(#grad_mood_empathetic_0)" />
</svg>
