<?xml version="1.0" encoding="UTF-8"?>
<svg xmlns="http://www.w3.org/2000/svg" viewBox="0 0 1080.0 1080.0">
  <path d="M540,179.6C539.9,130.1 519.8,85.2 487.3,52.7C454.7,20.1 409.7,0 360,0C310.3,0 265.3,20.1 232.7,52.7C179.1,106.3 66.6,292.8 36.5,341.6C8.8,386.5 0,417.4 0,450.3C0,483 8.7,513.6 23.9,540C8.7,566.4 0,597.1 0,629.7C0,662.6 8.8,693.5 36.5,738.4C66.6,787.2 179.1,973.7 232.7,1027.3C265.3,1059.8 310.3,1080 360,1080C409.7,1080 454.7,1059.8 487.3,1027.3C519.8,994.8 539.9,949.9 540,900.3C540.1,949.9 560.2,994.8 592.7,1027.3C625.3,1059.8 670.3,1080 720,1080C769.7,1080 814.7,1059.8 847.3,1027.3C900.8,973.7 1013.4,787.2 1043.5,738.4C1071.2,693.5 1080,662.6 1080,629.7C1080,597 1071.3,566.4 1056.1,540C1071.3,513.6 1080,482.9 1080,450.3C1080,417.6 1071.2,386.5 1043.5,341.6C1013.4,292.8 900.8,106.3 847.3,52.7C814.7,20.1 769.7,0 720,0C670.3,0 625.3,20.1 592.7,52.7C560.2,85.2 540.1,130.1 540,179.6Z" fill="#4ce39b" />
</svg>
