<?xml version="1.0" encoding="UTF-8"?>
<svg xmlns="http://www.w3.org/2000/svg" viewBox="0 0 1080.0 1080.0">
<defs>
  <linearGradient id="grad_mood_chill_0" gradientUnits="userSpaceOnUse" x1="539.6" y1="1080.0" x2="539.6" y2="-0.0">
    <stop offset="0.0" stop-color="#40c786" />
    <stop offset="0.5" stop-color="#4ce39b" />
    <stop offset="1.0" stop-color="#8befa2" />
  </linearGradient>
</defs>
  <path d="M540,0C463.5,0 395.4,48.3 370.1,120.4C287.5,65.1 175.7,87.2 120.4,169.8C79.8,230.4 79.8,309.5 120.4,370.1C48.3,395.4 0,463.6 0,540C0,616.4 48.3,684.6 120.4,709.9C65.1,792.5 87.2,904.3 169.8,959.6C230.4,1000.2 309.5,1000.2 370.1,959.6C395.4,1031.7 463.5,1080 540,1080C616.4,1080 684.5,1031.7 709.9,959.6C770.5,1000.2 849.6,1000.2 910.2,959.6C992.8,904.3 1014.9,792.5 959.6,709.9C1031.7,684.6 1080,616.5 1080,540C1080,463.6 1031.7,395.4 959.6,370.1C1000.2,309.5 1000.2,230.4 959.6,169.8C904.3,87.2 792.5,65.1 709.9,120.4C684.6,48.3 616.5,0 540,0Z" fill="url(#grad_mood_chill_0)" />
</svg>
