<?xml version="1.0" encoding="UTF-8"?>
<svg xmlns="http://www.w3.org/2000/svg" viewBox="0 0 1080.0 1080.0">
  <path d="M540,0C495,0 450,0 360,0C360,199 199,360 0,360C0,450 0,495 0,540C0,585 0,630 0,720C199,720 360,881 360,1080C450,1080 495,1080 540,1080C585,1080 630,1080 720,1080C720,990 720,900 720,810C763.5,875.2 855,1012.5 900,1080C945,1080 990,1080 1080,1080C1080,990 1080,630 1080,540C1080,450 1080,90 1080,0C990,0 945,0 900,0C855,67.5 765,202.5 720,270C720,180 720,90 720,0C675,0 585,0 540,0Z" fill="#799fff" />
</svg>
