<?xml version="1.0" encoding="UTF-8"?>
<svg xmlns="http://www.w3.org/2000/svg" viewBox="0 0 1080.0 1080.0">
  <path d="M540,360C440.5,360 360,279.5 360,180C360,80.5 360,45 360,0C315,0 225,0 180,0C180,45 180,80.5 180,180C180,279.5 99.5,360 0,360C0,405 0,450 0,540C0,630 0,666.8 0,720C99.5,720 180,800.5 180,900C225,900 270,900 360,900C360,990 360,1035 360,1080C405,1080 495,1080 540,1080C585,1080 675,1080 720,1080C720,1035 720,990 720,900C810,900 855,900 900,900C900,800.5 980.5,720 1080,720C1080,666.8 1080,630 1080,540C1080,450 1080,405 1080,360C980.5,360 900,279.5 900,180C900,80.5 900,45 900,0C855,0 765,0 720,0C720,45 720,80.5 720,180C720,279.5 639.5,360 540,360Z" fill="#799fff" />
</svg>
