<?xml version="1.0" encoding="UTF-8"?>
<svg xmlns="http://www.w3.org/2000/svg" viewBox="0 0 1080.0 1080.0">
  <path d="M540,0C470.9,0 401.7,26.2 349,78.9C325.5,102.4 102.2,325.7 78.6,349.3C25.9,402 0,471.2 0,540.3C0,609.4 26.4,678.5 79.1,731.2C104.2,756.3 133.9,776.2 166.7,789.8C199.4,803.3 234.6,808.3 270,810C415.3,816.9 540,930.8 540,1080C540,930.8 664.7,816.9 810,810C845.4,808.3 880.5,803.3 913.3,789.8C946.1,776.2 975.8,756.3 1000.9,731.2C1053.6,678.5 1080,609.4 1080,540.3C1080,471.2 1054.1,402 1001.4,349.3C977.8,325.7 754.5,102.4 731,78.9C678.3,26.2 609.1,0 540,0Z" fill="#ffd04b" />
</svg>
