<?xml version="1.0" encoding="UTF-8"?>
<svg xmlns="http://www.w3.org/2000/svg" viewBox="0 0 1080.0 1080.0">
  <path d="M540,0C241.8,0 0,241.8 0,540C0,720 0,855 0,900C45,855 135,765 180,720C180,765 180,1035 180,1080C225,1080 317.3,1080 360,1080C360,1035 360,999.5 360,900C360,800.5 440.5,720 540,720C639.5,720 720,800.5 720,900C720,999.5 720,1035 720,1080C765,1080 855,1080 900,1080C900,1035 900,765 900,720C945,765 1035,855 1080,900C1080,855 1080,720 1080,540C1080,241.8 838.2,0 540,0Z" fill="#799fff" />
</svg>
