<?xml version="1.0" encoding="UTF-8"?>
<svg xmlns="http://www.w3.org/2000/svg" viewBox="0 0 1080.0 1080.0">
  <path d="M540,0H284.9C195.4,89.5 87.3,197.6 52.2,232.7C17,267.9 0,313.9 0,360C0,406.1 17,452.1 52.2,487.3C87.4,522.5 133.9,540 180,540C133.9,540 87.9,557.6 52.7,592.7C17.5,627.8 0,673.9 0,720C0,766.1 17.6,812.1 52.7,847.3C87.8,882.4 195.9,990.5 285.4,1080H795.1C884.6,990.5 992.7,882.4 1027.8,847.3C1062.9,812.2 1080,766.1 1080,720C1080,673.9 1063,627.9 1027.8,592.7C992.6,557.5 946.6,540 900.5,540C946.6,540 992.1,522.4 1027.2,487.3C1062.3,452.2 1079.9,406.1 1079.9,360C1079.9,313.9 1062.3,267.9 1027.2,232.7C992.1,197.6 884,89.5 794.5,0H539.9H540Z" fill="#799fff" />
</svg>
