<?xml version="1.0" encoding="UTF-8"?>
<svg xmlns="http://www.w3.org/2000/svg" viewBox="0 0 1080.0 1080.0">
  <path d="M540,0C470.9,0 402.2,26.4 349.4,79.1C325.9,102.6 102.6,325.9 79,349.5C26.4,402.2 0,471.3 0,540.4C0,609.5 0.4,675 0.4,720.4C0.4,819.8 81,900.4 180.4,900.4C360.4,900.4 360,1080 540,1080C720,1080 719.6,900.4 899.6,900.4C999,900.4 1079.6,819.8 1079.6,720.4C1079.6,675 1080,609.5 1080,540.4C1080,471.3 1053.6,402.2 1000.9,349.5C977.3,325.9 754.1,102.7 730.5,79.1C677.8,26.4 609.1,0 540,0Z" fill="#4ce39b" />
</svg>
