<?xml version="1.0" encoding="UTF-8"?>
<svg xmlns="http://www.w3.org/2000/svg" viewBox="0 0 1080.0 1080.0">
  <path d="M540,180C539.9,80.7 459.4,0 360,0H180C180,99.4 99.4,180 0,180C0,229.8 0,384.8 0,540C0,630 0,666.8 0,720C99.5,720 180,800.5 180,900C225,900 270,900 360,900C360,990 360,1035 360,1080C405,1080 495,1080 540,1080C585,1080 675,1080 720,1080C720,1035 720,990 720,900C810,900 855,900 900,900C900,800.5 980.5,720 1080,720C1080,666.8 1080,630 1080,540C1080,384.8 1080,229.8 1080,180C980.6,180 900,99.4 900,0C832.4,0 761.9,0 720,0C620.7,0 540.1,80.7 540,180Z" fill="#799fff" />
</svg>
