<?xml version="1.0" encoding="UTF-8"?>
<svg xmlns="http://www.w3.org/2000/svg" viewBox="0 0 1080.0 1080.0">
  <path d="M540,0C540,99.4 459.4,180 360,180C260.6,180 180,99.4 180,0C180,99.4 99.4,180.3 0,180C0,270.3 0,382.6 0,540.3C0,698 0,810 0,900C99.4,900 180,980.6 180,1080C180,980.6 260.6,900 360,900C459.4,900 540,980.6 540,1080C540,980.6 620.6,900 720,900C819.4,900 900,980.6 900,1080C900,980.6 980.6,900 1080,900C1080,855 1080,697.5 1080,540C1080,382.6 1080,225.1 1080,180C980.6,180.3 900,99.4 900,0C900,99.4 819.4,180 720,180C620.6,180 540,99.4 540,0Z" fill="#ffd04b" />
</svg>
