<?xml version="1.0" encoding="UTF-8"?>
<svg xmlns="http://www.w3.org/2000/svg" viewBox="0 0 1080.0 1080.0">
<defs>
  <linearGradient id="grad_mood_grateful_0" gradientUnits="userSpaceOnUse" x1="539.6" y1="1080.0" x2="539.6" y2="-0.0">
    <stop offset="0.0" stop-color="#40c786" />
    <stop offset="0.5" stop-color="#4ce39b" />
    <stop offset="1.0" stop-color="#8befa2" />
  </linearGradient>
</defs>
  <path d="M540,0C440.6,0 360,80.6 360,180V270C315,225 270,180 180,180C80.6,180 0,260.6 0,360C0,459.4 80.6,540 180,540C80.6,540 0,620.6 0,720C0,819.4 80.6,900 180,900C270,900 315,855 360,810V900C360,999.4 440.6,1080 540,1080C639.4,1080 720,999.4 720,900V810C765,855 810,900 900,900C999.4,900 1080,819.4 1080,720C1080,620.6 999.4,540 900,540C999.4,540 1080,459.4 1080,360C1080,260.6 999.4,180 900,180C810,180 765,225 720,270V180C720,80.6 639.4,0 540,0Z" fill="url(#grad_mood_grateful_0)" />
</svg>
