<?xml version="1.0" encoding="UTF-8"?>
<svg xmlns="http://www.w3.org/2000/svg" viewBox="0 0 1080.0 1080.0">
  <path d="M540,0C496.6,0 453.2,22 429.6,66.1C401.4,118.6 340.1,144 283,126.8C187.2,97.9 97.9,187.2 126.8,283C144,340.1 118.6,401.4 66.1,429.6C22,453.2 0,496.6 0,540C0,583.4 22,626.8 66.1,650.4C118.6,678.6 144,739.9 126.8,797C97.9,892.7 187.2,982 283,953.2C340.1,936 401.4,961.5 429.6,1014C453.2,1058 496.6,1080 540,1080C583.4,1080 626.8,1058 650.4,1014C678.6,961.5 739.9,936.1 797,953.2C892.7,982 982,892.7 953.2,797C936,739.9 961.5,678.6 1014,650.4C1058,626.8 1080,583.4 1080,540C1080,496.6 1058,453.2 1014,429.6C961.5,401.4 936.1,340.1 953.2,283C982,187.3 892.7,98 797,126.8C740,144 678.7,118.6 650.4,66.1C626.8,22 583.4,0 540,0Z" fill="#00eabb" />
</svg>
