<?xml version="1.0" encoding="UTF-8"?>
<svg xmlns="http://www.w3.org/2000/svg" viewBox="0 0 1080.0 1080.0">
  <path d="M540,0C461.5,0 394.7,50.3 370.1,120.4C341.5,101.2 307.1,90 270,90C170.6,90 90,170.6 90,270C90,307.1 101.2,341.5 120.4,370.1C50.3,394.7 0,461.5 0,540C0,639.4 80.6,720 180,720C80.6,720 0,800.6 0,900C0,999.4 80.6,1080 180,1080C360,1080 360,900 540,900C720,900 720,1080 900,1080C999.4,1080 1080,999.4 1080,900C1080,800.6 999.4,720 900,720C999.4,720 1080,639.4 1080,540C1080,461.5 1029.7,394.7 959.6,370.1C978.8,341.5 990,307.1 990,270C990,170.6 909.4,90 810,90C773,90 738.5,101.2 709.9,120.4C685.3,50.3 618.5,0 540,0Z" fill="#4ce39b" />
</svg>
