<?xml version="1.0" encoding="UTF-8"?>
<svg xmlns="http://www.w3.org/2000/svg" viewBox="0 0 1080.0 1080.0">
  <path d="M540,180C440.5,180 360,99.5 360,0C315,0 225,0 180,0C180,99.5 99.4,180 0,180C0,270 0,450 0,540C0,630 0,675 0,720C99.5,720 180,800.5 180,900C180,999.5 180,1035 180,1080C225,1080 315,1080 360,1080C360,1035 360,999.5 360,900C360,800.5 440.5,720 540,720C639.5,720 720,800.5 720,900C720,999.5 720,1035 720,1080C765,1080 855,1080 900,1080C900,1035 900,999.5 900,900C900,800.5 980.5,720 1080,720C1080,675 1080,630 1080,540C1080,450 1080,270 1080,180C980.6,180 900,99.5 900,0C855,0 765,0 720,0C720,99.5 639.5,180 540,180Z" fill="#799fff" />
</svg>
