<?xml version="1.0" encoding="UTF-8"?>
<svg xmlns="http://www.w3.org/2000/svg" viewBox="0 0 1080.0 1080.0">
  <path d="M540,0C485.4,54.6 418.4,89.2 348.1,103.8C145.9,145.9 0,322.3 0,540C0,617.2 48.6,683 116.8,708.6C116.8,708.6 87.8,737.6 52.7,772.7C17.6,807.9 0,853.9 0,900C0,946.1 17.6,992.1 52.7,1027.3C87.8,1062.4 133.9,1080 180,1080C226.1,1080 272.1,1062.4 307.3,1027.3C342.4,992.2 540,794.6 540,794.6C540,794.6 737.6,992.2 772.7,1027.3C807.8,1062.4 853.9,1080 900,1080C946.1,1080 992.1,1062.4 1027.3,1027.3C1062.4,992.2 1080,946.1 1080,900C1080,853.9 1062.4,807.9 1027.3,772.7C992.2,737.6 963.2,708.6 963.2,708.6C1031.5,683 1080,617.2 1080,540C1080,322.3 934.1,145.9 732,103.8C661.7,89.2 594.7,54.6 540,0Z" fill="#ffd04b" />
</svg>
