<?xml version="1.0" encoding="UTF-8"?>
<svg xmlns="http://www.w3.org/2000/svg" viewBox="0 0 1080.0 1080.0">
  <path d="M540,0C495,0 405,0 360,0C360,45 360,135 360,180C315,180 270,180 180,180C180,279.5 99.4,360 0,360C0,405 0,540 0,540C0,540 99.4,540 180,540C80.7,540 0,620.7 0,720V900C99.4,900 180,980.6 180,1080C225,1080 382.5,1080 540,1080C697.5,1080 855,1080 900,1080C900,980.6 980.6,900 1080,900V720C1080,620.7 999.3,540 900,540H1080C1080,540 1080,405 1080,360C980.6,360 900,279.5 900,180C810,180 765,180 720,180C720,135 720,45 720,0C675,0 585,0 540,0Z" fill="#799fff" />
</svg>
