<?xml version="1.0" encoding="UTF-8"?>
<svg xmlns="http://www.w3.org/2000/svg" viewBox="0 0 1080.0 1080.0">
  <path d="M540,0C540,45 540,227 540,360C341,360 180,199 180,0C90,0 45,0 0,0C0,45 0,385.7 0,540C0,695.2 0,850.2 0,900C0,999.3 80.7,1080 180,1080C221.9,1080 292.4,1080 360,1080C360,980.6 440.6,900 540,900C540.1,999.3 620.7,1080 720,1080C761.9,1080 832.4,1080 900,1080C900,980.6 980.6,900 1080,900C1080,850.2 1080,695.2 1080,540C1080,450 1080,405 1080,360C881,360 720,199 720,0H540Z" fill="#799fff" />
</svg>
