<?xml version="1.0" encoding="UTF-8"?>
<svg xmlns="http://www.w3.org/2000/svg" viewBox="0 0 1080.0 1080.0">
  <path d="M540,0C405,0 270,0 180,0C180,99.4 99.4,180 0,180V270C0,369.4 80.7,450 180,450C99.4,450 45,450 0,450C0,495 0,675 0,720C99.4,720 180,800.7 180,900C180,999.3 180,1035 180,1080C270,1080 450,1080 540,1080C630,1080 810,1080 900,1080C900,1035 900,999.3 900,900C900,800.7 980.7,720 1080,720C1080,675 1080,495 1080,450C1035,450 980.7,450 900,450C999.3,450 1080,369.4 1080,270V180C980.6,180 900,99.4 900,0C810,0 675,0 540,0Z" fill="#799fff" />
</svg>
