<?xml version="1.0" encoding="UTF-8"?>
<svg xmlns="http://www.w3.org/2000/svg" viewBox="0 0 1080.0 1080.0">
<defs>
  <linearGradient id="grad_mood_serene_0" gradientUnits="userSpaceOnUse" x1="539.6" y1="1080.0" x2="539.6" y2="-0.0">
    <stop offset="0.0" stop-color="#40c786" />
    <stop offset="0.5" stop-color="#4ce39b" />
    <stop offset="1.0" stop-color="#8befa2" />
  </linearGradient>
</defs>
  <path d="M540,0C341.2,0 180,161.2 180,360C180,375.5 181,391.1 183,406.5C73.7,468.3 0,585.5 0,720C0,918.8 161.2,1080 360,1080C423.2,1080.1 485.3,1063.5 540,1031.8C594.7,1063.5 656.8,1080.1 720,1080C918.8,1080 1080,918.8 1080,720C1080,585.5 1006.3,468.3 897,406.5C899,391.1 900,375.5 900,360C900,161.2 738.8,0 540,0Z" fill="url(#grad_mood_serene_0)" />
</svg>
