<?xml version="1.0" encoding="UTF-8"?>
<svg xmlns="http://www.w3.org/2000/svg" viewBox="0 0 1080.0 1080.0">
  <path d="M540,0C270,0 270,180 0,180C0,210 0,240 0,270C60,300 120,330 180,360C120,390 60,420 0,450C0,495 0,666.8 0,720C99.5,720 180,800.5 180,900C225,900 270,900 360,900C360,990 360,1035 360,1080C405,1080 495,1080 540,1080C585,1080 675,1080 720,1080C720,1035 720,990 720,900C810,900 855,900 900,900C900,800.5 980.5,720 1080,720C1080,666.8 1080,495 1080,450C1020,420 960,390 900,360C960,330 1020,300 1080,270C1080,240 1080,210 1080,180C810,180 810,0 540,0Z" fill="#799fff" />
</svg>
