<?xml version="1.0" encoding="UTF-8"?>
<svg xmlns="http://www.w3.org/2000/svg" viewBox="0 0 1080.0 1080.0">
  <path d="M540,59.7C498.7,59.7 457.3,39.8 432.6,0C417.4,92.5 310.3,136.9 234.1,82.2C255.4,173.5 173.5,255.4 82.2,234.1C136.9,310.3 92.5,417.4 0,432.6C39.8,457.3 59.7,498.7 59.7,540C59.7,581.3 39.8,622.7 0,647.4C92.5,662.6 136.9,769.7 82.2,845.9C173.5,824.6 255.4,906.5 234.1,997.8C310.3,943.1 417.3,987.5 432.6,1080C457.3,1040.2 498.7,1020.3 540,1020.3C581.3,1020.3 622.7,1040.2 647.4,1080C662.6,987.5 769.7,943.1 845.9,997.8C824.6,906.5 906.5,824.6 997.8,845.9C943.1,769.7 987.5,662.7 1080,647.4C1040.2,622.7 1020.3,581.3 1020.3,540C1020.3,498.7 1040.2,457.3 1080,432.6C987.5,417.4 943.1,310.3 997.8,234.1C906.5,255.4 824.6,173.5 845.9,82.2C769.7,136.9 662.6,92.5 647.4,0C622.7,39.8 581.3,59.7 540,59.7Z" fill="#ffd04b" />
</svg>
