<?xml version="1.0" encoding="UTF-8"?>
<svg xmlns="http://www.w3.org/2000/svg" viewBox="0 0 1080.0 1080.0">
<defs>
  <linearGradient id="grad_mood_safe_0" gradientUnits="userSpaceOnUse" x1="539.6" y1="1080.0" x2="539.6" y2="-0.0">
    <stop offset="0.0" stop-color="#40c786" />
    <stop offset="0.5" stop-color="#4ce39b" />
    <stop offset="1.0" stop-color="#8befa2" />
  </linearGradient>
</defs>
  <path d="M540,0C492.2,-0.1 446.4,18.9 412.7,52.7L52.7,412.7C18.9,446.4 -0.1,492.2 0,540C0,615.1 46.6,682.2 116.8,708.6L52.7,772.7C-17.6,843 -17.6,957 52.7,1027.3C123,1097.6 237,1097.6 307.3,1027.3L540,794.6L772.7,1027.3C843,1097.6 957,1097.6 1027.3,1027.3C1097.6,957 1097.6,843 1027.3,772.7L963.2,708.6C1033.5,682.2 1080,615.1 1080,540C1080.1,492.2 1061.1,446.4 1027.3,412.7L667.3,52.7C633.6,18.9 587.8,-0.1 540,0Z" fill="url(#grad_mood_safe_0)" />
</svg>
