<?xml version="1.0" encoding="UTF-8"?>
<svg xmlns="http://www.w3.org/2000/svg" viewBox="0 0 1080.0 1080.0">
  <path d="M540,0H450C450,99.3 369.4,180 270,180C170.6,180 90,180 0,180C0,270 0,450 0,540V900C99.4,900 180,980.6 180,1080C270,1080 315,1080 360,1080V900C360,800.5 440.5,720 540,720C639.5,720 720,800.5 720,900C720,999.5 720,1035 720,1080C765,1080 810,1080 900,1080C900,980.6 980.6,900 1080,900C1080,810 1080,630 1080,540C1080,450 1080,270 1080,180H810C710.7,180 630,99.3 630,0C585,0 565.9,0 540,0Z" fill="#799fff" />
</svg>
