<?xml version="1.0" encoding="UTF-8"?>
<svg xmlns="http://www.w3.org/2000/svg" viewBox="0 0 1080.0 1080.0">
  <path d="M540,0C450,0 405,0 360,0C315,45 180,180 180,180V360C180,360 45,360 0,360C0,405 0,450 0,540C0,630 0,810 0,900C90,810 180,720 180,720V900H360C360,900 360,1035 360,1080C405,1080 450,1080 540,1080C630,1080 675,1080 720,1080L900,900V720C900,720 1035,720 1080,720C1080,675 1080,630 1080,540C1080,450 1080,225 1080,182C1035,226.8 900,361 900,361V180H720C720,180 720,45 720,0C675,0 630,0 540,0Z" fill="#ff4c40" />
</svg>
