<?xml version="1.0" encoding="UTF-8"?>
<svg xmlns="http://www.w3.org/2000/svg" viewBox="0 0 1080.0 1080.0">
  <path d="M540,360C341,360 180,199 180,0C90,0 45,0 0,0C0,90 0,540 0,630C90,630 124.8,630 155.9,630C124.8,683.8 66.6,720 0,720C0,810 0,980.6 0,1080C90,1080 270,1080 360,1080C360,980.6 440.6,900 540,900C639.4,900 720,980.6 720,1080C810,1080 990,1080 1080,1080C1080,980.6 1080,810 1080,720C1013.4,720 955.2,683.8 924.1,630C955.2,630 990,630 1080,630C1080,540 1080,90 1080,0C1035,0 990,0 900,0C900,199 739,360 540,360Z" fill="#2d89fd" />
</svg>
