<?xml version="1.0" encoding="UTF-8"?>
<svg xmlns="http://www.w3.org/2000/svg" viewBox="0 0 1080.0 1080.0">
  <path d="M540,285.4V180C540,80.6 459.4,0 360,0C260.6,0 180,80.6 180,180C180,360 0,361.1 0,540.5C0,720 180,720.5 180,900.5C180,1000 260.6,1080 360,1080C459.4,1080 540,1000 540,900.5V795.1C629.5,884.6 737.6,992.7 772.7,1027.8C807.9,1063 853.9,1080 900,1080C946.1,1080 992.1,1063 1027.3,1027.8C1062.4,992.7 1080,946.6 1080,900.5V180C1080,133.9 1062.4,87.9 1027.3,52.7C992.1,17.6 946.1,0 900,0C853.9,0 807.9,17.6 772.7,52.7C737.6,87.9 629.5,195.9 540,285.4Z" fill="#4ce39b" />
</svg>
