<?xml version="1.0" encoding="UTF-8"?>
<svg xmlns="http://www.w3.org/2000/svg" viewBox="0 0 1080.0 1080.0">
  <path d="M540,360C540,360 495,180 450,0C360,0 270,0 180,0C180,99.4 99.4,180 0,180C0,270 0,405 0,540C0,675 0,900 0,900C99.4,900 180,980.6 180,1080C270,1080 360,1080 450,1080C495,900 540,720 540,720C540,720 585,900 630,1080C720,1080 810,1080 900,1080C900,980.6 980.6,900 1080,900C1080,810 1080,675 1080,540C1080,405 1080,270 1080,180C980.6,180 900,99.4 900,0C810,0 720,0 630,0C585,180 540,360 540,360Z" fill="#799fff" />
</svg>
