<?xml version="1.0" encoding="UTF-8"?>
<svg xmlns="http://www.w3.org/2000/svg" viewBox="0 0 1080.0 1080.0">
<defs>
  <linearGradient id="grad_mood_moved_0" gradientUnits="userSpaceOnUse" x1="539.6" y1="1080.0" x2="539.6" y2="-0.0">
    <stop offset="0.0" stop-color="#40c786" />
    <stop offset="0.5" stop-color="#4ce39b" />
    <stop offset="1.0" stop-color="#8befa2" />
  </linearGradient>
</defs>
  <path d="M540,0C440.6,0 360,80.6 360,180V360C360,360 279.4,360 180,360C80.6,360 0,440.6 0,540C0,639.4 80.6,720 180,720C279.4,720 360,720 360,720V900C360,999.4 440.6,1080 540,1080C587.7,1080 633.5,1061 667.3,1027.3L1027.3,667.3C1062.4,632.2 1080,586.1 1080,540C1080,493.9 1062.4,447.9 1027.3,412.7L667.3,52.7C633.6,18.9 587.8,-0.1 540,0Z" fill="url(#grad_mood_moved_0)" />
</svg>
