<?xml version="1.0" encoding="UTF-8"?>
<svg xmlns="http://www.w3.org/2000/svg" viewBox="0 0 1080.0 1080.0">
  <path d="M540,0C495.1,0 404.6,0 360,0C359.8,99.2 278.8,180 179.6,180C80.4,180 89.8,180.4 0,180.4C0,228.8 0,372.7 0,540C0,629.8 0,675.1 0,720C99.3,720.2 180,800.6 180,900C180,999.2 180.4,1035.2 180.4,1080C225.4,1080 314.6,1080 359.6,1080C359.6,1035.5 360,999.7 360,902C360,796.7 440.5,720 540,720C639.5,720 720,804.3 720,900C720,999.2 720,1034.8 720,1079.7C765,1079.7 854.7,1080 899.7,1080C899.7,1035.2 900,999.2 900,900C900,800.6 980.7,719.8 1080,719.7C1080,674.8 1080,629.8 1080,540C1080,382.9 1080,270 1080,180C990,180 990.4,180 900.4,180C801.2,180 720.2,99.2 720,0C675.4,0 584.9,0 540,0Z" fill="#799fff" />
</svg>
