<?xml version="1.0" encoding="UTF-8"?>
<svg xmlns="http://www.w3.org/2000/svg" viewBox="0 0 1080.0 1080.0">
<defs>
  <linearGradient id="grad_mood_appreciated_0" gradientUnits="userSpaceOnUse" x1="539.6" y1="1080.0" x2="539.6" y2="-0.0">
    <stop offset="0.0" stop-color="#40c786" />
    <stop offset="0.5" stop-color="#4ce39b" />
    <stop offset="1.0" stop-color="#8befa2" />
  </linearGradient>
</defs>
  <path d="M540,0C440.6,0 360,80.6 360,180C260.6,180 180,260.6 180,360C80.6,360 0,440.6 0,540C0,639.4 80.6,720 180,720C180,819.4 260.6,900 360,900C360,999.4 440.6,1080 540,1080C639.4,1080 720,999.4 720,900C819.4,900 900,819.4 900,720C999.4,720 1080,639.4 1080,540C1080,440.6 999.4,360 900,360C900,260.6 819.4,180 720,180C720,80.6 639.4,0 540,0Z" fill="url(#grad_mood_appreciated_0)" />
</svg>
