<?xml version="1.0" encoding="UTF-8"?>
<svg xmlns="http://www.w3.org/2000/svg" viewBox="0 0 1080.0 1080.0">
  <path d="M540,0C510,0 480,0 450,0C450,99.3 369.3,180 270,180C170.7,180 90,180 0,180C0,228.1 0,404.5 0,572.1C0,718.4 0,858.1 0,900C99.5,900 180,980.6 180,1080C270,1080 405,1080 450,1080C483.7,945 528.8,765 540,720C551.3,765 596.3,945 630,1080C675,1080 810,1080 900,1080C900,980.6 980.5,900 1080,900C1080,855 1080,697.5 1080,540C1080,382.5 1080,225 1080,180H810C710.7,180 630,99.3 630,0C600,0 570,0 540,0Z" fill="#799fff" />
</svg>
