<?xml version="1.0" encoding="UTF-8"?>
<svg xmlns="http://www.w3.org/2000/svg" viewBox="0 0 1080.0 1080.0">
<defs>
  <linearGradient id="grad_mood_carefree_0" gradientUnits="userSpaceOnUse" x1="539.6" y1="1080.0" x2="539.6" y2="-0.0">
    <stop offset="0.0" stop-color="#40c786" />
    <stop offset="0.5" stop-color="#4ce39b" />
    <stop offset="1.0" stop-color="#8befa2" />
  </linearGradient>
</defs>
  <path d="M540,0C492.2,-0.1 446.5,19 412.7,52.7C378.9,86.4 87.8,377.5 52.7,412.7C17.6,447.9 0,493.9 0,540C0,586.1 17.6,632.2 52.7,667.3C86.5,701 132.3,720 180,720C227.7,720 360,720 360,720C360,720 360,800.6 360,900C360,999.4 440.6,1080 540,1080C639.4,1080 720,999.4 720,900C720,800.6 720,720 720,720C720,720 800.6,720 900,720C999.4,720 1080,639.4 1080,540C1080,440.6 999.4,360 900,360C800.6,360 720,360 720,360C720,360 720,279.4 720,180C720,80.6 639.4,0 540,0Z" fill="url(#grad_mood_carefree_0)" />
</svg>
