<?xml version="1.0" encoding="UTF-8"?>
<svg xmlns="http://www.w3.org/2000/svg" viewBox="0 0 1080.0 1080.0">
<defs>
  <linearGradient id="grad_mood_peaceful_0" gradientUnits="userSpaceOnUse" x1="539.6" y1="1080.0" x2="539.6" y2="-0.0">
    <stop offset="0.0" stop-color="#40c786" />
    <stop offset="0.5" stop-color="#4ce39b" />
    <stop offset="1.0" stop-color="#8befa2" />
  </linearGradient>
</defs>
  <path d="M540,285.4L307.5,52.7C237.2,-17.6 123.2,-17.6 52.9,52.7C-17.4,123 -17.4,237 52.9,307.3L117,371.4C46.6,397.7 -0.1,464.9 0,540C0,639.4 80.6,720 180,720C279.4,720 360,720 360,720C360,720 360,800.6 360,900C360,999.4 440.6,1080 540,1080C639.4,1080 720,999.4 720,900C720,800.6 720,720 720,720C720,720 800.6,720 900,720C999.4,720 1080,639.4 1080,540C1080.1,464.9 1033.4,397.7 963,371.4L1027.1,307.3C1097.4,237 1097.4,123 1027.1,52.7C956.8,-17.6 842.8,-17.6 772.5,52.7L540,285.4Z" fill="url(#grad_mood_peaceful_0)" />
</svg>
