<?xml version="1.0" encoding="UTF-8"?>
<svg xmlns="http://www.w3.org/2000/svg" viewBox="0 0 1080.0 1080.0">
  <path d="M540,0C241.8,0 0,241.8 0,540C0,618.5 50.3,685.3 120.4,709.9C101.2,738.5 90,772.9 90,810C90,909.4 170.6,990 270,990C307,990 341.5,978.8 370.1,959.6C394.7,1029.7 461.5,1080 540,1080C618.5,1080 685.3,1029.7 709.9,959.6C738.5,978.8 772.9,990 810,990C909.4,990 990,909.4 990,810C990,773 978.8,738.5 959.6,709.9C1029.7,685.3 1080,618.5 1080,540C1080,241.8 838.2,0 540,0Z" fill="#4ce39b" />
</svg>
