<?xml version="1.0" encoding="UTF-8"?>
<svg xmlns="http://www.w3.org/2000/svg" viewBox="0 0 1080.0 1080.0">
  <path d="M540,0C495,0 450,0 360,0C360,99.4 279.4,180 180,180C80.7,180 45,180 0,180C0,225 0,450 0,540C0,630 0,855 0,900C45,900 80.7,900 180,900C279.4,900 360,980.6 360,1080C450,1080 495,1080 540,1080C585,1012.5 675,877.5 720,810C720,881 720,990 720,1080C765,1080 855,1080 900,1080C954,945 1026,765 1080,630C1080,585 1080,576.8 1080,540C1080,503.2 1080,495 1080,450C1026,315 954,135 900,0C855,0 765,0 720,0C720,90 720,199 720,270C675,202.5 585,67.5 540,0Z" fill="#799fff" />
</svg>
