<?xml version="1.0" encoding="UTF-8"?>
<svg xmlns="http://www.w3.org/2000/svg" viewBox="0 0 1080.0 1080.0">
  <path d="M540,0C495,0 450,0 360,0C360,99.5 279.5,180 180,181.6C180,225 180,245.2 180,271.6C180,371 99.3,450 0,451.6C0,495 0,652.7 0,720C199,720 360,881 360,1080C450,1080 495,1080 540,1080C585,1080 630,1080 720,1080C720,881 881,720 1080,720C1080,652.7 1080,495 1080,451.6C980.7,450 900,371 900,271.6C900,245.2 900,225 900,181.6C800.5,180 720,99.5 720,0C630,0 585,0 540,0Z" fill="#799fff" />
</svg>
