<?xml version="1.0" encoding="UTF-8"?>
<svg xmlns="http://www.w3.org/2000/svg" viewBox="0 0 1080.0 1080.0">
  <path d="M540,180C440.6,180 360,99.4 360,0H180C180,99.4 99.4,180 0,180V360C0,459.3 80.7,540 180,540C80.7,540 0,620.7 0,720V900C99.4,900 180,980.6 180,1080H360C360,980.6 440.6,900 540,900C639.4,900 720,980.6 720,1080H900C900,980.6 980.6,900 1080,900V720C1080,620.7 999.3,540 900,540C999.3,540 1080,459.3 1080,360V180C980.6,180 900,99.4 900,0H720C720,99.4 639.4,180 540,180Z" fill="#799fff" />
</svg>
