<?xml version="1.0" encoding="UTF-8"?>
<svg xmlns="http://www.w3.org/2000/svg" viewBox="0 0 1080.0 1080.0">
  <path d="M540,180C539.9,80.7 459.3,0 360,0C318.1,0 247.6,0 180,0C180,99.4 99.4,180 0,180C0,229.8 0,384.8 0,540C0,694.3 0,848.7 0,900C99.4,900 180,980.6 180,1080C247.6,1080 318.1,1080 360,1080C459.3,1080 539.9,999.3 540,900C639.4,900 720,980.6 720,1080C787.6,1080 858.1,1080 900,1080C999.3,1080 1080,999.3 1080,900C1080,848.7 1080,694.3 1080,540C1080,384.8 1080,229.8 1080,180C1080,80.7 999.3,0 900,0C858.1,0 787.6,0 720,0C720,99.4 639.4,180 540,180Z" fill="#799fff" />
</svg>
