<?xml version="1.0" encoding="UTF-8"?>
<svg xmlns="http://www.w3.org/2000/svg" viewBox="0 0 1080.0 1080.0">
  <path d="M540,0C440.6,0 360,80.6 360,180C260.6,180 180,260.6 180,360C80.6,360 0,440.6 0,540C0,618.8 0,697.5 0,720C0,819.4 80.6,900 180,900C270,900 315,855 360,810V900C360,999.4 440.6,1080 540,1080C639.4,1080 720,999.4 720,900V810C765,855 810,900 900,900C999.4,900 1080,819.4 1080,720C1080,620.6 1080,618.8 1080,540C1080,440.6 999.4,360 900,360C900,260.6 819.4,180 720,180C720,80.6 639.4,0 540,0Z" fill="#4ce39b" />
</svg>
