<?xml version="1.0" encoding="UTF-8"?>
<svg xmlns="http://www.w3.org/2000/svg" viewBox="0 0 1080.0 1080.0">
  <path d="M540,360C440.5,360 360,279.5 360,180C360,80.5 360,45 360,0C315,0 225,0 180,0C180,45 180,80.5 180,180C180,279.5 99.5,360 0,360C0,405 0,450 0,540C0,630 0,990 0,1080C45,1080 90,1080 180,1080C180,881 341,720 540,720C739,720 900,881 900,1080C990,1080 1035,1080 1080,1080C1080,990 1080,630 1080,540C1080,450 1080,405 1080,360C980.5,360 900,279.5 900,180C900,80.5 900,45 900,0C855,0 765,0 720,0C720,45 720,80.5 720,180C720,279.5 639.5,360 540,360Z" fill="#799fff" />
</svg>
