<?xml version="1.0" encoding="UTF-8"?>
<svg xmlns="http://www.w3.org/2000/svg" viewBox="0 0 1080.0 1080.0">
  <path d="M540,0C360,0 360.4,179.8 180.4,179.8C81,179.8 0.4,260.4 0.4,359.9C0.4,459.4 0,470.9 0,540C0,639.4 80.6,720 180,720C180,819.4 260.6,900 360,900C360,999.4 440.6,1080 540,1080C639.4,1080 720,999.4 720,900C819.4,900 900,819.4 900,720C999.4,720 1080,639.4 1080,540C1080,440.6 1079.6,405.3 1079.6,359.9C1079.6,260.4 999,179.8 899.6,179.8C719.6,179.8 720,0 540,0Z" fill="#4ce39b" />
</svg>
