<?xml version="1.0" encoding="UTF-8"?>
<svg xmlns="http://www.w3.org/2000/svg" viewBox="0 0 1080.0 1080.0">
<defs>
  <linearGradient id="grad_mood_thrilled_0" gradientUnits="userSpaceOnUse" x1="540.0" y1="1080.0" x2="540.0" y2="0.0">
    <stop offset="0.0" stop-color="#ffb218" />
    <stop offset="0.5" stop-color="#ffd04b" />
    <stop offset="1.0" stop-color="#f8e46d" />
  </linearGradient>
</defs>
  <path d="M540,92.7C458.4,92.7 376.8,61.8 315,0C315,174.8 174.8,315 0,315C61.8,376.8 92.7,458.4 92.7,540C92.7,621.6 61.8,703.2 0,765C174.8,765 315,905.2 315,1080C376.5,1018.6 458.2,987.7 540,987.3C622.8,986.9 705.8,1017.8 768,1080C768,905.2 905.2,765 1080,765C1018.2,703.2 987.3,621.6 987.3,540C987.3,458.4 1018.2,376.8 1080,315C905.2,315 765,174.8 765,0C703.2,61.8 621.6,92.7 540,92.7Z" fill="url(#grad_mood_thrilled_0)" />
</svg>
