<?xml version="1.0" encoding="UTF-8"?>
<svg xmlns="http://www.w3.org/2000/svg" viewBox="0 0 1080.0 1080.0">
  <path d="M540,0C540,135 540,270 540,360C420,280 303.8,202.5 191.4,127.6C74.3,226.6 0,374.6 0,540C0,630 0,666.8 0,720C99.5,720 180,800.5 180,900C225,900 270,900 360,900C360,990 360,1035 360,1080C405,1080 495,1080 540,1080C585,1080 675,1080 720,1080C720,1035 720,990 720,900C810,900 855,900 900,900C900,800.5 980.5,720 1080,720C1080,666.8 1080,630 1080,540C1080,240 838.2,0 540,0Z" fill="#799fff" />
</svg>
