<?xml version="1.0" encoding="UTF-8"?>
<svg xmlns="http://www.w3.org/2000/svg" viewBox="0 0 1080.0 1080.0">
<defs>
  <linearGradient id="grad_mood_blissful_0" gradientUnits="userSpaceOnUse" x1="539.6" y1="1080.0" x2="539.6" y2="-0.0">
    <stop offset="0.0" stop-color="#40c786" />
    <stop offset="0.5" stop-color="#4ce39b" />
    <stop offset="1.0" stop-color="#8befa2" />
  </linearGradient>
</defs>
  <path d="M540,90C440.6,90 360,170.6 360,270C360,300.2 360,360 360,360C360,260.6 279.4,180 180,180C80.6,180 0,260.6 0,360C0,459.4 0,620.6 0,720C0,819.4 80.6,900 180,900C279.4,900 360,819.4 360,720C360,720 360,779.8 360,810C360,909.4 440.6,990 540,990C639.4,990 720,909.4 720,810C720,810 720,875.2 720,900C720,999.4 800.6,1080 900,1080C999.4,1080 1080,999.4 1080,900C1080,800.6 1080,279.4 1080,180C1080,80.6 999.4,0 900,0C800.6,0 720,80.6 720,180C720,204.8 720,270 720,270C720,170.6 639.4,90 540,90Z" fill="url(#grad_mood_blissful_0)" />
</svg>
