<?xml version="1.0" encoding="UTF-8"?>
<svg xmlns="http://www.w3.org/2000/svg" viewBox="0 0 1080.0 1080.0">
  <path d="M540,0C495,0 450,0 360,0C360,49.6 360,90 360,180C315,180 225,180 180,180C180,279.5 99.5,360 0,360C0,405 0,450 0,540C0,630 0,810 0,900C99.5,900 180,980.6 180,1080C270,1080 405,1080 450,1080C483.8,945 528.8,765 540,720C551.3,765 596.3,945 630,1080C675,1080 810,1080 900,1080C900,980.6 980.5,900 1080,900C1080,810 1080,630 1080,540C1080,450 1080,405 1080,360C980.5,360 900,279.5 900,180C855,180 765,180 720,180C720,90 720,49.6 720,0C630,0 585,0 540,0Z" fill="#799fff" />
</svg>
