<?xml version="1.0" encoding="UTF-8"?>
<svg xmlns="http://www.w3.org/2000/svg" viewBox="0 0 1080.0 1080.0">
<defs>
  <linearGradient id="grad_mood_accepted_0" gradientUnits="userSpaceOnUse" x1="539.5" y1="1079.9" x2="539.5" y2="-0.0">
    <stop offset="0.0" stop-color="#40c786" />
    <stop offset="0.5" stop-color="#4ce39b" />
    <stop offset="1.0" stop-color="#8befa2" />
  </linearGradient>
</defs>
  <path d="M540.1,0C468.4,0.1 399.7,28.4 349.1,79.1C298.5,129.8 129.8,298.4 79.1,349.1C28.4,399.8 -0.1,468.4 0,539.9C-0.1,611.6 28.4,680.3 79.1,730.9C129.7,781.6 298.4,950.2 349,1000.8C399.6,1051.4 468.3,1080 539.9,1079.9C611.6,1080 680.3,1051.5 730.9,1000.8C781.6,950.1 950.2,781.5 1000.8,730.9C1051.5,680.2 1080,611.6 1079.9,540C1080,468.3 1051.5,399.6 1000.8,349C950.1,298.4 781.6,129.8 731,79.1C680.3,28.5 611.7,-0.1 540.1,0Z" fill="url(#grad_mood_accepted_0)" />
</svg>
