<?xml version="1.0" encoding="UTF-8"?>
<svg xmlns="http://www.w3.org/2000/svg" viewBox="0 0 1080.0 1080.0">
  <path d="M540,0C461.5,0 394.7,50.3 370.1,120.4C341.5,101.2 307.1,90 270,90C170.6,90 90,170.6 90,270C90,307.1 101.2,341.5 120.4,370.1C50.3,394.7 0,461.5 0,540C0,609.1 25.9,678 78.6,730.7C102.2,754.3 325.6,977.3 349.2,1000.9C401.9,1053.6 471,1080 540.1,1080C609.2,1080 678.3,1053.6 731,1000.9L1001.4,730.6C1054.1,677.8 1080,609.1 1080,540C1080,461.5 1029.7,394.7 959.6,370.1C978.8,341.5 990,307.1 990,270C990,170.6 909.4,90 810,90C773,90 738.5,101.2 709.9,120.4C685.3,50.3 618.5,0 540,0Z" fill="#4ce39b" />
</svg>
