<?xml version="1.0" encoding="UTF-8"?>
<svg xmlns="http://www.w3.org/2000/svg" viewBox="0 0 1080.0 1080.0">
  <path d="M540,0H180.1C180.1,99.4 99.5,180 0,180C0,247.6 0,228.1 0,270C0,369.3 80.7,449.9 180.1,450H0V900C99.5,900 180.1,980.6 180.1,1080C247.7,1080 318.3,1080 360.2,1080C456.6,1080 535.3,995.2 540,900C544.7,995.2 623.4,1080 719.8,1080C761.7,1080 832.3,1080 899.9,1080C899.9,980.6 980.5,900 1080,900V450H899.9C999.3,450 1080,369.3 1080,270C1080,228.1 1080,247.6 1080,180C980.5,180 899.9,99.4 899.9,0H540Z" fill="#799fff" />
</svg>
