<?xml version="1.0" encoding="UTF-8"?>
<svg xmlns="http://www.w3.org/2000/svg" viewBox="0 0 1080.0 1080.0">
  <path d="M540,180C540,80.6 459.4,0 360,0C260.6,0 180,80.6 180,180C180,270 225,315 270,360C240,360.2 210,360.2 180,360C80.6,360.3 0,440.6 0,540C0,639.4 80.6,720 180,720C210,720 240,720 270,720C225,765 180,810 180,900C180,999.4 260.6,1080 360,1080C459.4,1080 540,999.4 540,900C540,999.4 620.6,1080 720,1080C819.4,1080 896.3,999.3 900,900C906.8,720 1080,720 1080,540C1080,360 906.8,360.3 900,180C896.3,80.7 819.4,0 720,0C620.6,0 540,80.6 540,180Z" fill="#4ce39b" />
</svg>
